@startuml
[*] --> ST_STOP : Power On or Reset or Error

state "Stop ADMA\nST_STOP" as ST_STOP
state "Fetch Descriptor\nST_FDS" as ST_FDS
state "Change Address\nST_CADR" as ST_CADR
state "Transfer Data\nST_TFR" as ST_TFR

ST_STOP --> ST_FDS : Driver sets SYS_ADR

ST_FDS --> ST_CADR : Vaild=1
note right of ST_FDS
  **Generates ADMA**
  **Error Interrupt**
end note

ST_FDS --> ST_FDS : Command Req, Write or Continue\nValid=0

ST_CADR --> ST_TFR : Tran=1
note right of ST_CADR
  **Load Register from Descriptor**
  Load Attributes, TFC=0
  Load DAT_LEN
  Load DAT_ADR
end note

ST_CADR --> ST_FDS : End=0&\nTran=0

ST_TFR --> ST_TFR : Data Transfer
note left of ST_TFR
  Terminate transfer when transfer data
  length reach to DAT_LEN.
  And then set flag TFC=1.
end note

ST_TFR --> ST_CADR : TFC=1&\nEnd=0&STOP=0
note bottom of ST_CADR
  **Link -> SYS_ADR= DAT_ADR**
  **others -> SYS_ADR++**
end note

ST_TFR --> ST_STOP : TFC=1&\n(End=1 or STOP=1)

ST_TFR --> ST_FDS : End=1&\nTran=0

ST_CADR --> ST_CADR : DAT_ADR++

note bottom of ST_STOP
  **Definition of Symbols:**
  **SYS_ADR** - ADMA System Address Register
  **SYS_ADR++** - Point to next line.
  **DAT_ADR** - Data Address Register (Internal)
  **DAT_LEN** - Data Length Register (Internal)
  **TFC** - TransFer Complete flag (Internal)
  **STOP** - Stop At Block Gap Request
end note

@enduml